<?xml version="1.0" encoding="UTF-8"?><svg id="Ebene_1" xmlns="http://www.w3.org/2000/svg" viewBox="0 0 169.71 154.86"><path d="M148.94,82.9v1.71c0,16.3,0,32.6,0,48.89,0,6.15-1.98,11.53-6.36,15.91-3.58,3.59-7.94,5.4-13.03,5.39-8.51,0-17.02,0-25.53,0-3.33,0-4.88-1.57-4.89-4.94,0-14.78,0-29.56,0-44.34v-1.59h-28.61c0,.5,0,.99,0,1.49,0,14.78,0,29.56,0,44.34,0,3.52-1.52,5.04-5.02,5.04-8.15,0-16.3-.19-24.45.05-11.08.31-18.53-8.15-19.99-17.19-.25-1.53-.34-3.1-.35-4.65-.02-16.14-.01-32.28-.01-48.42v-1.69c-1.05,0-2,0-2.94,0-2.36,0-4.72-.07-7.07.01-6.96.23-11.37-6.1-10.63-12.38.36-3.07,1.78-5.58,4.19-7.55C29,42.82,53.72,22.63,78.45,2.46c4.03-3.29,8.78-3.28,12.81.01,24.7,20.15,49.39,40.3,74.08,60.46,5.18,4.23,5.85,11.78,1.5,16.63-1.97,2.2-4.45,3.33-7.41,3.33-3.43,0-6.86,0-10.48,0ZM62.18,146.43v-1.66c0-14.62,0-29.25,0-43.87,0-.44-.01-.88.02-1.32.16-2.4,1.78-4.04,4.19-4.05,12.31-.03,24.61-.03,36.92,0,2.41,0,4.03,1.64,4.19,4.05.03.44.02.88.02,1.32,0,14.62,0,29.25,0,43.87,0,.51,0,1.02,0,1.66.56,0,.99,0,1.42,0,6.75,0,13.5-.04,20.26.02,4.21.04,7.24-1.87,9.4-5.35,1.52-2.45,2.02-5.17,2.02-8.02-.01-17.9,0-35.8,0-53.7,0-3.28,1.58-4.85,4.85-4.85,4.43,0,8.87,0,13.3,0,1.69,0,2.45-.74,2.56-2.44.08-1.24-.52-2.09-1.45-2.84-24.52-19.99-49.03-40-73.54-60-1.42-1.16-1.53-1.16-2.95,0C58.89,29.22,34.41,49.2,9.93,69.18c-.28.23-.58.44-.81.71-.89,1.01-.91,2.16-.47,3.37.42,1.15,1.32,1.3,2.41,1.3,4.51-.04,9.03-.09,13.54.04,1.07.03,2.25.52,3.15,1.13,1.25.86,1.35,2.34,1.35,3.79-.01,17.78,0,35.56,0,53.34,0,.88.03,1.76.11,2.63.64,6.7,5.32,10.96,12.02,10.96,6.51,0,13.02,0,19.54,0,.43,0,.86,0,1.42,0Z" fill="#455a64"/></svg>