<svg id="Ebene_1" data-name="Ebene 1" xmlns="http://www.w3.org/2000/svg" viewBox="0 0 196.9 43.9" height="44" width="197">
  <defs>
    <style>
      .cls-1 {
        fill: #505450;
      }

      .cls-2 {
        fill: #729786;
        fill-rule: evenodd;
      }
    </style>
  </defs>
  <title>ig-logo</title>
  <g>
    <polygon class="cls-1" points="56.5 33.8 56.5 10.8 59.1 10.8 59.1 33.8 56.5 33.8 56.5 33.8"/>
    <path class="cls-1" d="M81.9,33.8V22.9a3.6,3.6,0,0,0-.2-1.1,1.8,1.8,0,0,0-.4-1c-.1-.3-.4-.5-.6-.7a2,2,0,0,0-1.1-.3,2.8,2.8,0,0,0-1.3.4,2.7,2.7,0,0,0-1,1.1,6.4,6.4,0,0,0-.8,1.4,10.9,10.9,0,0,0-.5,1.7,9,9,0,0,0-.3,1.6,6.2,6.2,0,0,0-.1,1.3v6.5H73.3V22.9a3.6,3.6,0,0,0-.2-1.1,2.9,2.9,0,0,0-.3-1,2.3,2.3,0,0,0-.7-.7,2,2,0,0,0-1.1-.3,2.8,2.8,0,0,0-1.3.4,3.6,3.6,0,0,0-1,1.1,6.4,6.4,0,0,0-.8,1.4,10.9,10.9,0,0,0-.5,1.7L67.1,26a6.2,6.2,0,0,0-.1,1.3v6.5H64.8V17.9H67v3.7h.1a4.4,4.4,0,0,1,.6-1.6,3.8,3.8,0,0,1,.9-1.3l1.2-.8a4.7,4.7,0,0,1,1.7-.3,4.4,4.4,0,0,1,2.9.9,3.7,3.7,0,0,1,1.1,2.7h.1a6.1,6.1,0,0,1,.7-1.4,5.8,5.8,0,0,1,1-1.2,3.3,3.3,0,0,1,1.3-.7,4,4,0,0,1,1.5-.3,3.4,3.4,0,0,1,1.8.4,2.8,2.8,0,0,1,1.3,1.1,6,6,0,0,1,.8,1.6,9.9,9.9,0,0,1,.2,1.8V33.8Z"/>
    <path class="cls-1" d="M106.7,33.8V22.9c-.1-.4-.1-.8-.2-1.1a3,3,0,0,0-.4-1,2.3,2.3,0,0,0-.7-.7,1.5,1.5,0,0,0-1-.3,3.3,3.3,0,0,0-1.4.4,5.5,5.5,0,0,0-1,1.1,6.1,6.1,0,0,0-.7,1.4l-.6,1.7a8.8,8.8,0,0,0-.2,1.6,6.2,6.2,0,0,0-.1,1.3v6.5H98.1V22.9a3.6,3.6,0,0,0-.2-1.1,3,3,0,0,0-.4-1,1.6,1.6,0,0,0-.7-.7,1.5,1.5,0,0,0-1-.3,2.8,2.8,0,0,0-1.3.4,3.6,3.6,0,0,0-1,1.1,6.4,6.4,0,0,0-.8,1.4,10.9,10.9,0,0,0-.5,1.7,4.5,4.5,0,0,0-.3,1.6,6.2,6.2,0,0,0-.1,1.3v6.5H89.5V17.9h2.3v3.7h.1a4.4,4.4,0,0,1,.6-1.6,5.7,5.7,0,0,1,.8-1.3,5.7,5.7,0,0,1,1.3-.8,4.7,4.7,0,0,1,1.7-.3,4.1,4.1,0,0,1,2.8.9,3.8,3.8,0,0,1,1.2,2.7h.1a5.9,5.9,0,0,1,.6-1.4,12.7,12.7,0,0,1,1-1.2,5.1,5.1,0,0,1,2.9-1,3.4,3.4,0,0,1,1.8.4,3.5,3.5,0,0,1,1.3,1.1,3.9,3.9,0,0,1,.7,1.6,5.2,5.2,0,0,1,.3,1.8V33.8Z"/>
    <path class="cls-1" d="M123.6,25.9a7.1,7.1,0,0,0-.1-1.4,6.8,6.8,0,0,0-.2-1.4,5.7,5.7,0,0,0-.4-1.4l-.7-1.1a2.8,2.8,0,0,0-1.1-.8,3.2,3.2,0,0,0-1.4-.3,3.3,3.3,0,0,0-1.5.3,2.5,2.5,0,0,0-1,.8,4.1,4.1,0,0,0-.7,1.1,7.4,7.4,0,0,0-.4,1.4l-.3,1.4v2.7l.3,1.5a6.5,6.5,0,0,0,.4,1.3,3.5,3.5,0,0,0,.7,1.2,3.9,3.9,0,0,0,1,.8,3.3,3.3,0,0,0,1.5.3,3.2,3.2,0,0,0,1.4-.3l1.1-.8a4.1,4.1,0,0,0,.7-1.1,7.4,7.4,0,0,0,.4-1.4,7.8,7.8,0,0,0,.2-1.4,7.1,7.1,0,0,0,.1-1.4Zm2.6,0a15.5,15.5,0,0,1-.3,3.1,8.1,8.1,0,0,1-1.1,2.7,4.9,4.9,0,0,1-2,1.8,5.9,5.9,0,0,1-3.1.7,5.7,5.7,0,0,1-3.1-.7,5,5,0,0,1-2-1.8,8.1,8.1,0,0,1-1.1-2.7,16.2,16.2,0,0,1,0-6.2,8.1,8.1,0,0,1,1.1-2.7,5,5,0,0,1,2-1.8,5.7,5.7,0,0,1,3.1-.7,5.9,5.9,0,0,1,3.1.7,4.9,4.9,0,0,1,2,1.8,8.1,8.1,0,0,1,1.1,2.7,15.5,15.5,0,0,1,.3,3.1Z"/>
    <path class="cls-1" d="M139.7,26a6.2,6.2,0,0,0-.1-1.3,7.8,7.8,0,0,0-.2-1.4,7.4,7.4,0,0,0-.4-1.4,2.3,2.3,0,0,0-.6-1.2,3.8,3.8,0,0,0-.9-.9,2.8,2.8,0,0,0-1.3-.3,2.9,2.9,0,0,0-1.4.3,5.2,5.2,0,0,0-1.1,1,5.4,5.4,0,0,0-.7,1.3l-.5,1.5a10,10,0,0,0-.2,1.6,6.2,6.2,0,0,0-.1,1.3c0,.6.1,1.3.1,1.9a6,6,0,0,0,.6,1.9,3.2,3.2,0,0,0,2.9,2,2.9,2.9,0,0,0,1.4-.3,2.7,2.7,0,0,0,1-.8,2.6,2.6,0,0,0,.7-1.1,7.8,7.8,0,0,0,.5-1.4,6.8,6.8,0,0,0,.2-1.4,6.2,6.2,0,0,0,.1-1.3Zm2.6.1a15.3,15.3,0,0,1-.3,3,7.6,7.6,0,0,1-1.1,2.6,4.9,4.9,0,0,1-2,1.8,5.6,5.6,0,0,1-3,.7,7.4,7.4,0,0,1-2.8-.5,3.8,3.8,0,0,1-1.8-1.5,5,5,0,0,1-1-2.2,11.2,11.2,0,0,1-.3-2.7V10.8h2.2v9.8h.1a5.2,5.2,0,0,1,.6-1.3,4.1,4.1,0,0,1,1-.9,3.1,3.1,0,0,1,1.3-.6,3.4,3.4,0,0,1,1.4-.2,6,6,0,0,1,2,.3,5.6,5.6,0,0,1,1.5,1l1.1,1.5a6.4,6.4,0,0,1,.6,1.8,12.9,12.9,0,0,1,.4,1.9,13.4,13.4,0,0,1,.1,2Z"/>
    <path class="cls-1" d="M146.7,33.8V17.9h2.2V33.8Zm-.4-20v-3h3v3Z"/>
    <polygon class="cls-1" points="154.7 33.8 154.7 10.8 157 10.8 157 33.8 154.7 33.8 154.7 33.8"/>
    <path class="cls-1" d="M162.8,33.8V17.9h2.3V33.8Zm-.4-20v-3h3v3Z"/>
    <path class="cls-1" d="M178.7,22.5a2.2,2.2,0,0,0-.2-1.2l-.6-1a3.3,3.3,0,0,0-1-.6,2.5,2.5,0,0,0-1.2-.2,2.7,2.7,0,0,0-1.3.2l-1,.6a3.3,3.3,0,0,0-.6,1,3.3,3.3,0,0,0-.5,1.2Zm-6.5,1.9v.9a11.5,11.5,0,0,0,.3,2.6,7.4,7.4,0,0,0,1,2.2,5.5,5.5,0,0,0,1.8,1.6,5.1,5.1,0,0,0,2.5.6h1.6l1.6-.3v1.8l-1.8.4h-1.9a7.8,7.8,0,0,1-3.5-.7,5.5,5.5,0,0,1-2.4-1.8,8.2,8.2,0,0,1-1.4-2.8,13.7,13.7,0,0,1-.4-3.6,13.6,13.6,0,0,1,.3-2.9,9.3,9.3,0,0,1,1-2.5,5.5,5.5,0,0,1,2-1.7,6,6,0,0,1,2.9-.6,6.1,6.1,0,0,1,2.4.4,4.6,4.6,0,0,1,1.8,1.3,4.9,4.9,0,0,1,1,1.9,8.8,8.8,0,0,1,.3,2.4v.8Z"/>
    <path class="cls-1" d="M194.6,33.8V22.9a3.6,3.6,0,0,0-.2-1.1,3,3,0,0,0-.4-1c-.1-.3-.4-.5-.6-.7a2,2,0,0,0-1.1-.3,3.7,3.7,0,0,0-1.5.4,5.2,5.2,0,0,0-1.1,1l-.9,1.4-.6,1.6a10.1,10.1,0,0,0-.3,1.7,7.1,7.1,0,0,0-.1,1.4v6.5h-2.3V17.9h2.3v3.7h0c.2-.6.5-1.2.7-1.7a4.3,4.3,0,0,1,1.1-1.2,2.5,2.5,0,0,1,1.4-.8,4.8,4.8,0,0,1,1.8-.3,3.4,3.4,0,0,1,1.8.4,3.5,3.5,0,0,1,1.3,1.1,3.9,3.9,0,0,1,.7,1.6,5.2,5.2,0,0,1,.3,1.8V33.8Z"/>
  </g>
  <path class="cls-2" d="M0,0V43.9H43.9V0ZM13.3,33.7H10.7V10.6h2.6ZM21,23.6a9.9,9.9,0,0,0,.3,2.4,9,9,0,0,0,.6,2.2A11.8,11.8,0,0,0,23,30.1a5.5,5.5,0,0,0,1.7,1.3,5.4,5.4,0,0,0,2.4.5h1l1.2-.2,1.1-.4.9-.6V22.8H26V20.6h7.9V31.8a7.1,7.1,0,0,1-1.4,1l-1.7.7-1.8.4H27.3a8.2,8.2,0,0,1-3.3-.5,8.4,8.4,0,0,1-2.5-1.3,8.7,8.7,0,0,1-1.7-2.1,10.8,10.8,0,0,1-1-2.7,13.6,13.6,0,0,1-.6-2.9c-.1-1-.2-2.1-.2-3.1a24.6,24.6,0,0,1,.2-2.8,11,11,0,0,1,.6-2.6,16.3,16.3,0,0,1,1.1-2.3,6.9,6.9,0,0,1,1.6-1.8,9.4,9.4,0,0,1,2.2-1.2,8.8,8.8,0,0,1,2.9-.5,9.3,9.3,0,0,1,2.9.5A7,7,0,0,1,31.9,12a6.4,6.4,0,0,1,1.6,2,8.8,8.8,0,0,1,.5,2.9H31.1a4.8,4.8,0,0,0-.3-1.8,3.8,3.8,0,0,0-.9-1.5,3.4,3.4,0,0,0-1.4-.9,4.8,4.8,0,0,0-1.8-.3,4.6,4.6,0,0,0-2.1.4A4.6,4.6,0,0,0,23,13.9a4.4,4.4,0,0,0-1,1.6,13.4,13.4,0,0,0-.7,1.8,7.6,7.6,0,0,0-.3,2.1,13.4,13.4,0,0,0-.1,2A17,17,0,0,0,21,23.6Z"/>
</svg>
