<?xml version="1.0" encoding="UTF-8" standalone="no"?>
<!-- Created with Inkscape (http://www.inkscape.org/) -->

<svg
   xmlns:dc="http://purl.org/dc/elements/1.1/"
   xmlns:cc="http://creativecommons.org/ns#"
   xmlns:rdf="http://www.w3.org/1999/02/22-rdf-syntax-ns#"
   xmlns:svg="http://www.w3.org/2000/svg"
   xmlns="http://www.w3.org/2000/svg"
   xmlns:sodipodi="http://sodipodi.sourceforge.net/DTD/sodipodi-0.dtd"
   xmlns:inkscape="http://www.inkscape.org/namespaces/inkscape"
   version="1.1"
   id="svg2"
   xml:space="preserve"
   width="669.42639"
   height="229.80147"
   viewBox="0 0 669.42638 229.80147"
   sodipodi:docname="EPEA-Logo_Sonderfarbe.svg"
   inkscape:version="0.92.4 (5da689c313, 2019-01-14)"><metadata
     id="metadata8"><rdf:RDF><cc:Work
         rdf:about=""><dc:format>image/svg+xml</dc:format><dc:type
           rdf:resource="http://purl.org/dc/dcmitype/StillImage" /><dc:title></dc:title></cc:Work></rdf:RDF></metadata><defs
     id="defs6"><clipPath
       clipPathUnits="userSpaceOnUse"
       id="clipPath22"><path
         d="M 0,595.276 H 841.89 V 0 H 0 Z"
         id="path20"
         inkscape:connector-curvature="0" /></clipPath></defs><sodipodi:namedview
     pagecolor="#ffffff"
     bordercolor="#666666"
     borderopacity="1"
     objecttolerance="10"
     gridtolerance="10"
     guidetolerance="10"
     inkscape:pageopacity="0"
     inkscape:pageshadow="2"
     inkscape:window-width="1920"
     inkscape:window-height="1147"
     id="namedview4"
     showgrid="false"
     inkscape:zoom="1.1893642"
     inkscape:cx="323.41233"
     inkscape:cy="38.348853"
     inkscape:window-x="1912"
     inkscape:window-y="-8"
     inkscape:window-maximized="1"
     inkscape:current-layer="g18" /><g
     id="g10"
     inkscape:groupmode="layer"
     inkscape:label="EPEA-Logo_Part_of_Sonderfarbe"
     transform="matrix(1.3333333,0,0,-1.3333333,-262.48999,521.87865)"><g
       id="g12"
       transform="translate(534.1221,375.9685)"><path
         d="m 0,0 v -93.867 h 53.768 v 11.906 H 13.945 v 31.185 h 35.591 v 11.77 H 13.945 v 27.098 H 51.716 V 0 Z"
         style="fill:#467158;fill-opacity:1;fill-rule:nonzero;stroke:none"
         id="path14"
         inkscape:connector-curvature="0" /></g><g
       id="g16"><g
         id="g18"
         clip-path="url(#clipPath22)"><g
           id="g24"
           transform="translate(644.0176,322.2361)"><path
             d="m 0,0 c 0.789,2.333 8.563,25.307 8.563,25.307 0.007,0.007 2.492,9.211 3.778,13.952 0.68,-2.415 3.913,-14.072 3.913,-14.072 0,0 7.892,-22.847 8.701,-25.187 z M 20.608,53.732 H 4.894 l -31.89,-93.867 h 14.343 c 0,0 9.123,27.633 9.538,28.911 H 28.08 c 0.425,-1.263 9.816,-28.911 9.816,-28.911 h 14.749 z"
             style="fill:#467158;fill-opacity:1;fill-rule:nonzero;stroke:none"
             id="path26"
             inkscape:connector-curvature="0" /></g><g
           id="g28"
           transform="translate(353.8999,375.9685)"><path
             d="m 0,0 v -93.867 h 53.775 v 11.906 H 13.952 v 31.185 h 35.584 v 11.77 H 13.952 v 27.098 h 37.77 V 0 Z"
             style="fill:#467158;fill-opacity:1;fill-rule:nonzero;stroke:none"
             id="path30"
             inkscape:connector-curvature="0" /></g><g
           id="g32"
           transform="translate(494.3008,368.7707)"><path
             d="m 0,0 c -5.793,5.223 -14.682,7.877 -26.401,7.877 -8.536,0 -16.254,-0.652 -22.966,-1.925 l -0.788,-0.148 v -92.473 h 13.81 v 36.668 c 2.706,-0.511 5.685,-0.666 8.577,-0.666 12.274,0 22.505,3.692 28.802,10.402 4.967,4.959 7.484,11.801 7.484,20.304 C 8.518,-11.841 5.493,-4.745 0,0 m -27.504,-39.171 c -3.667,0 -6.574,0.292 -8.841,0.802 v 34.068 c 1.71,0.309 5.085,0.816 10.207,0.816 13.354,0 20.714,-6.096 20.714,-17.162 0,-11.77 -8.047,-18.524 -22.08,-18.524"
             style="fill:#467158;fill-opacity:1;fill-rule:nonzero;stroke:none"
             id="path34"
             inkscape:connector-curvature="0" /></g><g
           id="g36"
           transform="translate(685.3203,233.5549)"><path
             d="m 0,0 v 11.471 h 3.375 c 2.012,0 3.264,-0.359 4.173,-0.917 1.365,-0.716 2.466,-2.509 2.466,-4.62 0,-2.27 -0.759,-3.745 -1.744,-4.58 C 7.206,0.478 5.728,0 3.263,0 Z M -2.086,-13.94 H 0 v 12.505 h 1.215 c 1.668,0 2.616,-0.994 3.602,-2.349 2.465,-3.345 5.615,-9.001 6.108,-10.156 h 2.692 c -0.682,1.116 -3.641,6.014 -5.347,8.762 -1.367,2.19 -2.087,3.027 -3.339,3.783 h 0.266 c 4.248,0 7.092,2.708 7.092,7.29 0,2.907 -1.364,4.779 -2.541,5.774 -1.252,1.076 -2.997,1.714 -6.447,1.714 h -5.387 z m -22.796,0 h 13.958 v 1.952 h -11.795 v 11.311 h 9.065 v 1.951 h -9.065 V 11.51 h 11.075 l 0.303,1.873 h -13.541 z m -33.908,0 h 2.088 l 1.669,21.308 0.226,3.903 c 0.191,-0.637 0.265,-1.274 1.025,-3.943 l 5.917,-21.268 h 1.857 l 6.146,21.906 c 0.38,1.354 0.797,3.264 0.872,3.425 0,-0.12 0.113,-3.227 0.151,-3.625 l 1.783,-21.706 h 2.162 l -2.314,27.323 h -3.147 l -5.766,-20.592 c -0.454,-1.633 -0.759,-3.227 -0.759,-3.386 -0.037,0.159 -0.341,1.714 -0.834,3.585 l -5.651,20.393 h -3.148 z m -32.884,0 h 2.086 l 1.669,21.308 0.228,3.903 c 0.19,-0.637 0.266,-1.274 1.024,-3.943 l 5.917,-21.268 h 1.859 l 6.144,21.906 c 0.38,1.354 0.798,3.264 0.873,3.425 0,-0.12 0.114,-3.227 0.151,-3.625 l 1.784,-21.706 h 2.162 l -2.315,27.323 h -3.147 l -5.767,-20.592 c -0.455,-1.633 -0.758,-3.227 -0.758,-3.386 -0.038,0.159 -0.34,1.714 -0.834,3.585 l -5.652,20.393 h -3.147 z m -18.585,1.314 c -2.845,0 -5.12,1.713 -6.105,3.545 -1.026,1.992 -1.707,5.297 -1.707,9.28 0,3.544 0.53,6.094 1.478,8.046 0.987,1.951 3.111,3.703 6.145,3.703 3.414,0 5.348,-2.07 6.259,-4.062 0.948,-2.032 1.441,-4.86 1.441,-8.802 0,-4.262 -0.646,-6.651 -1.859,-8.563 -1.101,-1.673 -2.807,-3.147 -5.652,-3.147 m -0.114,-1.752 c 3.263,0 5.311,1.474 6.903,3.385 2.087,2.43 3.149,5.657 3.149,10.394 0,4.223 -0.759,7.41 -2.2,9.799 -1.175,1.991 -3.49,4.581 -7.927,4.581 -3.641,0 -6.107,-1.833 -7.623,-4.223 -1.48,-2.31 -2.391,-5.655 -2.391,-9.798 0,-4.341 0.987,-7.845 2.693,-10.196 1.479,-2.11 3.831,-3.942 7.396,-3.942 m -34.78,2.35 c 2.351,-1.593 4.817,-2.35 7.775,-2.35 2.276,0 4.136,0.557 5.652,1.633 2.01,1.474 3.149,3.744 3.149,6.293 0,1.832 -0.684,3.584 -1.707,4.779 -1.063,1.235 -2.429,1.952 -4.362,2.589 l -2.844,0.956 c -1.556,0.518 -2.732,1.115 -3.452,1.871 -0.834,0.837 -1.102,1.991 -1.102,3.267 0,3.146 2.353,4.978 5.691,4.978 2.313,0 3.945,-0.637 6.106,-2.11 l 0.948,1.632 c -2.124,1.513 -4.437,2.349 -7.169,2.349 -4.551,0 -7.888,-2.866 -7.888,-7.288 0,-1.752 0.493,-3.305 1.554,-4.5 0.949,-1.035 2.277,-1.674 4.324,-2.35 l 2.619,-0.876 c 1.402,-0.438 2.654,-1.076 3.564,-1.992 0.872,-0.876 1.327,-2.11 1.327,-3.624 0,-1.873 -0.643,-3.386 -1.971,-4.421 -1.214,-0.956 -2.466,-1.314 -4.439,-1.314 -2.616,0 -4.778,0.717 -6.827,2.27 z m -30.534,-0.796 c -3.715,0 -5.992,2.031 -5.992,5.296 0,2.669 1.593,4.66 4.4,6.053 l 7.966,-8.124 c -1.063,-1.593 -3.453,-3.225 -6.374,-3.225 m -0.834,13.462 c -2.805,2.628 -3.565,4.102 -3.565,5.735 0,2.787 2.048,4.181 4.323,4.181 2.504,0 4.249,-1.633 4.249,-4.181 0,-2.431 -1.745,-4.143 -5.007,-5.735 m 0.758,-15.135 c 3.339,0 6.184,1.712 7.625,3.664 l 3.034,-3.107 h 2.769 L -167,-9.161 c 0.948,1.792 1.556,3.625 1.556,8.205 v 0.239 h -1.822 v -0.319 c 0.039,-2.748 -0.265,-5.138 -1.024,-6.691 l -7.017,7.169 c 3.566,1.912 6.032,3.584 6.032,6.891 0,3.743 -2.883,5.813 -6.525,5.813 -3.489,0 -6.485,-2.468 -6.485,-6.053 0,-2.072 1.289,-4.102 3.755,-6.412 -3.301,-1.672 -5.387,-3.664 -5.387,-7.05 0,-4.859 3.642,-7.128 8.154,-7.128 m -44.224,2.469 c 2.351,-1.593 4.816,-2.35 7.774,-2.35 2.276,0 4.136,0.557 5.652,1.633 2.01,1.474 3.149,3.744 3.149,6.293 0,1.832 -0.684,3.584 -1.707,4.779 -1.062,1.235 -2.428,1.952 -4.361,2.589 l -2.846,0.956 c -1.556,0.518 -2.732,1.115 -3.451,1.871 -0.835,0.837 -1.101,1.991 -1.101,3.267 0,3.146 2.353,4.978 5.691,4.978 2.313,0 3.944,-0.637 6.105,-2.11 l 0.948,1.632 c -2.123,1.513 -4.436,2.349 -7.168,2.349 -4.551,0 -7.889,-2.866 -7.889,-7.288 0,-1.752 0.494,-3.305 1.555,-4.5 0.949,-1.035 2.276,-1.674 4.324,-2.35 l 2.618,-0.876 c 1.402,-0.438 2.654,-1.076 3.564,-1.992 0.873,-0.876 1.328,-2.11 1.328,-3.624 0,-1.873 -0.645,-3.386 -1.972,-4.421 -1.213,-0.956 -2.465,-1.314 -4.439,-1.314 -2.616,0 -4.778,0.717 -6.827,2.27 z m -20.33,-1.912 h 13.958 v 1.952 h -11.796 v 11.311 h 9.064 v 1.951 h -9.064 V 11.51 h 11.075 l 0.304,1.873 h -13.541 z m -22.795,0 h 13.958 v 1.952 h -11.797 v 11.311 h 9.065 v 1.951 h -9.065 V 11.51 h 11.076 l 0.304,1.873 h -13.541 z M -285.302,0 v 11.471 h 3.376 c 2.01,0 3.262,-0.359 4.173,-0.917 1.364,-0.716 2.465,-2.509 2.465,-4.62 0,-2.27 -0.758,-3.745 -1.745,-4.58 C -278.095,0.478 -279.575,0 -282.039,0 Z m -2.086,-13.94 h 2.086 v 12.505 h 1.215 c 1.669,0 2.616,-0.994 3.603,-2.349 2.464,-3.345 5.613,-9.001 6.107,-10.156 h 2.692 c -0.683,1.116 -3.642,6.014 -5.348,8.762 -1.365,2.19 -2.086,3.027 -3.338,3.783 h 0.267 c 4.248,0 7.091,2.708 7.091,7.29 0,2.907 -1.364,4.779 -2.541,5.774 -1.252,1.076 -2.996,1.714 -6.446,1.714 h -5.388 z m -24.842,1.872 V 11.51 h 3.033 c 3.034,0 5.008,-0.437 6.752,-2.31 1.896,-2.071 2.883,-4.859 2.883,-9.719 0,-4.021 -0.949,-6.73 -2.58,-8.96 -1.63,-2.19 -4.059,-2.589 -7.017,-2.589 z m -2.124,-1.872 h 5.422 c 3.756,0 5.88,0.557 8.307,2.987 2.125,2.111 3.415,5.736 3.415,10.713 0,5.298 -1.442,9.242 -4.363,11.511 -2.389,1.833 -4.4,2.112 -8.383,2.112 h -4.398 z m -32.62,0 h 2.162 v 13.341 h 8.837 v 1.873 h -8.837 V 11.51 h 10.734 l 0.342,1.873 h -13.238 z m -19.798,1.314 c -2.845,0 -5.121,1.713 -6.107,3.545 -1.024,1.992 -1.706,5.297 -1.706,9.28 0,3.544 0.53,6.094 1.479,8.046 0.985,1.951 3.11,3.703 6.145,3.703 3.412,0 5.346,-2.07 6.257,-4.062 0.948,-2.032 1.441,-4.86 1.441,-8.802 0,-4.262 -0.644,-6.651 -1.858,-8.563 -1.1,-1.673 -2.807,-3.147 -5.651,-3.147 m -0.114,-1.752 c 3.261,0 5.309,1.474 6.904,3.385 2.086,2.43 3.148,5.657 3.148,10.394 0,4.223 -0.76,7.41 -2.201,9.799 -1.175,1.991 -3.488,4.581 -7.926,4.581 -3.643,0 -6.108,-1.833 -7.624,-4.223 -1.48,-2.31 -2.39,-5.655 -2.39,-9.798 0,-4.341 0.985,-7.845 2.693,-10.196 1.479,-2.11 3.83,-3.942 7.396,-3.942 m -38.08,0.438 h 2.085 v 25.411 h 7.283 l 0.151,1.912 h -16.726 v -1.912 h 7.207 z M -430.759,0 v 11.471 h 3.376 c 2.01,0 3.262,-0.359 4.173,-0.917 1.365,-0.716 2.464,-2.509 2.464,-4.62 0,-2.27 -0.757,-3.745 -1.744,-4.58 C -423.553,0.478 -425.031,0 -427.497,0 Z m -2.086,-13.94 h 2.086 v 12.505 h 1.215 c 1.668,0 2.616,-0.994 3.603,-2.349 2.464,-3.345 5.613,-9.001 6.107,-10.156 h 2.692 c -0.683,1.116 -3.642,6.014 -5.348,8.762 -1.365,2.19 -2.086,3.027 -3.338,3.783 h 0.266 c 4.249,0 7.092,2.708 7.092,7.29 0,2.907 -1.364,4.779 -2.541,5.774 -1.252,1.076 -2.997,1.714 -6.447,1.714 h -5.387 z m -22.567,10.713 4.514,14.578 4.438,-14.578 z m -5.463,-10.713 h 2.164 l 2.692,8.88 h 10.089 l 2.693,-8.88 h 2.427 l -8.608,27.323 h -2.808 z m -17.143,13.104 v 12.307 h 3.603 c 2.542,0 4.06,-0.439 5.197,-1.355 1.365,-1.075 2.049,-2.708 2.049,-4.938 0,-1.912 -0.759,-3.386 -1.746,-4.421 -1.023,-1.036 -2.39,-1.593 -4.704,-1.593 z m -2.086,-13.104 h 2.086 v 11.271 h 4.515 c 2.691,0 4.627,0.598 6.257,2.031 1.556,1.435 2.429,3.426 2.429,6.214 0,2.748 -1.101,5.019 -3.263,6.49 -1.403,0.957 -2.959,1.317 -5.766,1.317 h -6.258 z"
             style="fill:#0f0500;fill-opacity:1;fill-rule:nonzero;stroke:none"
             id="path38"
             inkscape:connector-curvature="0" /></g><g
           id="g40"
           transform="translate(288.1255,348.279)"><path
             d="M 0,0 17.48,21.57 V 43.13 L -6.64,12.031 Z m -35.931,-8.036 33.928,38.785 -12.788,6.659 -21.14,-24.187 z m -3.251,30.9 13.833,17.225 c -3.087,0.537 -6.26,0.816 -9.497,0.816 -31.156,0 -56.412,-25.896 -56.412,-57.84 0,-31.944 25.256,-57.84 56.412,-57.84 31.156,0 56.413,25.896 56.413,57.84 0,8.053 -1.605,15.721 -4.505,22.687 L 3.447,-9.025 c 0.5,-2.557 0.762,-5.202 0.762,-7.91 0,-22.115 -17.486,-40.043 -39.055,-40.043 -21.569,0 -39.055,17.928 -39.055,40.043 0,18.749 12.567,34.487 29.535,38.845 1.687,0.433 3.418,0.754 5.184,0.954"
             style="fill:#467158;fill-opacity:1;fill-rule:nonzero;stroke:none"
             id="path42"
             inkscape:connector-curvature="0" /></g></g></g></g></svg>