<?xml version="1.0" encoding="UTF-8"?><svg id="svg56" xmlns="http://www.w3.org/2000/svg" viewBox="0 0 512.91 540.48"><g id="g954"><g id="shape2-2"><path id="path10" d="M319.22,204.76l139.32,27.36,54-134.22-43.94,24.94C400.68,5.55,250.54-34.47,133.26,33.45c-24,13.9-45.46,31.76-63.49,52.83l73.7-11.06,24.95,69.73c53.27-48.69,135.93-44.98,184.62,8.29,6.47,7.08,12.15,14.86,16.92,23.18l-50.74,28.34Z" fill="#ececec" fill-rule="evenodd" stroke="#000" stroke-linecap="round" stroke-linejoin="round" stroke-width=".75"/></g><g id="shape6-4"><path id="path15" d="M258.69,319.25l-93.35,106.97,89.24,113.88.37-50.52c135.53-.18,245.26-110.19,245.08-245.72-.04-27.73-4.77-55.25-14-81.4l-27.27,69.36-72.86-13.26c15.53,70.48-29.01,140.21-99.49,155.74-9.37,2.06-18.94,3.09-28.53,3.06l.83-58.11Z" fill="#e6e6e6" fill-rule="evenodd" stroke="#000" stroke-linecap="round" stroke-linejoin="round" stroke-width=".75"/></g><g id="shape7-6"><path id="path20" d="M189.58,209.56l-45.97-134.33L.37,95.57l43.57,25.58c-67.61,117.46-27.2,267.49,90.26,335.11,24.03,13.83,50.23,23.49,77.49,28.57l-46.43-58.3,47.91-56.47c-68.8-21.79-106.92-95.23-85.13-164.03,2.9-9.15,6.79-17.95,11.61-26.24l49.91,29.77Z" fill="#ccc" fill-rule="evenodd" stroke="#000" stroke-linecap="round" stroke-linejoin="round" stroke-width=".75"/></g></g><g id="shape24-8"><path id="path26" d="M82.52,301.99c101.74-43.11,180.16-127.72,215.43-232.44" fill="none" stroke="#fff" stroke-linecap="round" stroke-miterlimit="3" stroke-width="19"/></g><g id="shape25-11"><path id="path31" d="M394.33,368.61c-77.01-81.35-110.7-194.5-90.71-304.73" fill="none" stroke="#fff" stroke-linecap="round" stroke-linejoin="round" stroke-width="19"/></g><g id="shape26-14"><path id="path36" d="M394.33,368.61c-75.82-91.99-205.03-119.59-311.81-66.61" fill="none" stroke="#fff" stroke-linecap="round" stroke-miterlimit="3" stroke-width="19"/></g><g id="shape16-17"><circle id="ellipse41" cx="301.5" cy="66.01" r="31.89" fill="#fff" stroke="#000" stroke-linecap="round" stroke-miterlimit="3" stroke-width=".75"/></g><g id="shape15-19"><circle id="ellipse46" cx="79.55" cy="302.7" r="31.89" fill="#fff" stroke="#000" stroke-linecap="round" stroke-miterlimit="3" stroke-width=".75"/></g><g id="shape17-21"><circle id="ellipse51" cx="393.63" cy="367.19" r="31.89" fill="#fff" stroke="#000" stroke-linecap="round" stroke-miterlimit="3" stroke-width=".75"/></g></svg>