<?xml version="1.0" encoding="UTF-8"?><svg id="harvestMAP_copy" xmlns="http://www.w3.org/2000/svg" viewBox="0 0 252.28 167.24"><rect x="159.54" y="36.2" width="19.06" height="7.38" fill="#1a171b" isolation="isolate"/><rect x="158.54" y="3.52" width="18.72" height="7.32" fill="#1a171b" isolation="isolate"/><rect x="158.54" y="18.84" width="17.25" height="7.21" fill="#1a171b" isolation="isolate"/><rect x="147.93" y="3.52" width="9.08" height="40.06" fill="#1a171b" isolation="isolate"/><polygon points="145.7 3.52 136 3.52 128.34 28.2 132.48 41.25 145.7 3.52" fill="#1a171b" isolation="isolate"/><polygon points="109.16 3.52 123.18 43.58 131.63 43.58 118.98 3.52 109.16 3.52" fill="#1a171b" isolation="isolate"/><path d="M188.44,24.74c1.7.79,4.03,1.42,4.43,1.53l8.11,1.87c1.48.45,2.89.79,3.8,2.21.62.85.62,1.7.62,2.1,0,1.47-.74,3.4-3.86,4.2-.96.23-1.7.34-2.67.34v7.55c1.42,0,9.7,0,13.67-5.79,1.99-2.89,2.1-5.96,2.1-7.15,0-3.8-1.42-6.13-2.38-7.32-.28-.28-.79-.85-1.65-1.48-2.72-2.04-5.5-2.67-8.68-3.52l-6.19-1.47c-1.36-.34-3.35-.79-4.2-2.1-.4-.57-.51-1.13-.57-1.82,0-2.1,1.42-3.86,5.39-4.03.34,0,.63,0,.91-.06l.06-7.21c-3.07.06-4.94.4-6.24.74-.91.23-4.48,1.3-6.7,3.86-2.33,2.78-2.55,6.13-2.55,7.32,0,6.58,4.48,9.25,6.58,10.21Z" fill="#1a171b" isolation="isolate"/><rect x="215.87" y="3.52" width="10.5" height="7.43" fill="#1a171b" isolation="isolate"/><rect x="238.34" y="3.52" width="10.55" height="7.43" fill="#1a171b" isolation="isolate"/><rect x="227.79" y="3.52" width="9.08" height="40.06" fill="#1a171b" isolation="isolate"/><path d="M209.84,6.13c-3.91-3.4-9.64-3.52-10.95-3.52l-.06,7.32c.23,0,3.29.28,4.77,1.87,1.3,1.36,1.48,3.63,1.48,4.09l8.91-.62c-.17-1.36-.51-6.01-4.14-9.13Z" fill="#1a171b" isolation="isolate"/><path d="M177.89,99.77l-11.63-18.53-1.77,5.32-5.14-.5,11.25,18c1.41,2.7,2.15,5.77,2.15,8.59-.26,7.47-4.37,12.77-13.06,12.95h-14.38v-12.8l-6.29,8.8-5.84,8.15,5.82,8.35,4.24,6.07,2.07,2.97v-13.07h14.4c13.13,0,21.51-10.13,21.49-21.41,0-4.23-1.09-8.67-3.27-12.81l-.04-.07Z" fill="#1a171b" isolation="isolate"/><rect x=".63" y="3.52" width="9.08" height="40.06" fill="#1a171b" isolation="isolate"/><rect x=".43" y="53.57" width="16.91" height="80.12" fill="#1a171b" isolation="isolate"/><path d="M49,82.51c-1.7,6.58-3.41,13.05-4.99,19.63-1.02,4.08-1.93,8.17-2.72,12.37-.68-3.86-1.48-7.72-2.38-11.57-1.59-6.13-3.29-12.14-4.99-18.27-2.84-10.33-5.56-20.77-8.28-31.09h-5.33v36.77l12.03,43.35h18.04l12.03-44.15v-35.97h-5.9l-7.49,28.94Z" fill="#1a171b" isolation="isolate"/><path d="M60.26,3.52h-10.21l-13.84,40.06h10.16l7.55-25.65c.51-1.87.91-3.74,1.3-5.62.4,1.93.85,3.91,1.36,5.84l2.89,9.53h-6.87l-2.16,7.38h11.23l2.61,8.51h10.16L60.26,3.52Z" fill="#1a171b" isolation="isolate"/><path d="M246.12,64.35c-6.47-10.21-17.25-10.78-28.14-10.78h-8.74v14.64h7.83c4.31,0,8.17-.11,11.8,2.95,3.18,2.72,3.4,7.03,3.4,8.28,0,2.5-.91,5.33-2.38,7.38-1.47,2.04-3.75,3.74-8.85,4.2-2.04.11-3.97.11-6.01.11h-5.79v14.87h9.08c8.29-.23,12.48-.68,16.34-1.93,5.56-1.93,15.55-8.51,15.55-24.06,0-2.72,0-9.19-4.08-15.66Z" fill="#1a171b" isolation="isolate"/><rect x="188.25" y="53.57" width="18.04" height="80.12" fill="#1a171b" isolation="isolate"/><rect x="65.34" y="53.57" width="16.8" height="80.12" fill="#1a171b" isolation="isolate"/><path d="M197.3,44.66l.06-7.55c-3.12-.28-4.94-1.13-5.96-2.16-1.7-1.59-1.76-3.8-1.82-4.48l-8.97.45c.06,1.76.23,6.58,4.37,10.1,2.38,2.04,5.05,2.84,8.11,3.29,2.1.34,3.18.34,4.2.34Z" fill="#1a171b" isolation="isolate"/><path d="M137.32,57.66c2.26.2,5.44,1.1,8.36,6.6l6.14,9.82-10.8,6.8,9.1.56,10.88.62.79.04,3.37-7.93,3.47-8.25,1.37-3.32-11.03,6.97-5.98-9.54c-3.68-7.07-9.4-10.77-16.13-10.82-6.81.05-12.11,4-16.33,11.28l-14.58,22.43,5.04-.05,1.89,4.91,14.96-23.07.06-.1c3.54-5.66,6.26-6.77,8.56-6.95h.88Z" fill="#1a171b" isolation="isolate"/><rect x="77.46" y="3.52" width="9.02" height="40.06" fill="#1a171b" isolation="isolate"/><path d="M113.54,125.6c-8.73-.17-12.97-5.61-13.22-13.26,0-2.68.68-5.65,2.17-8.6l2.9-4.48,10.81,6.88-4.24-10.44-3.29-8.15-.3-.74-21.73.03,11.63,7.89-3.01,4.65-.19.34c-2.17,4.13-3.2,8.46-3.2,12.64-.02,11.4,8.42,21.69,21.65,21.7h18.07l-3.26-4.53,3.26-3.94h-18.06Z" fill="#1a171b" isolation="isolate"/><polygon points="33.31 43.58 33.31 3.52 24.29 3.52 24.29 18.73 11.19 18.73 11.19 26.21 24.29 26.21 24.29 43.58 33.31 43.58" fill="#1a171b" isolation="isolate"/><path d="M88.01,3.52v7.55h4.99c3.57-.06,5.22.34,6.35,1.87.45.62.91,1.3.91,2.89,0,1.08-.23,2.21-.79,3.12-1.25,2.04-3.52,2.44-5.67,2.55h-5.79v7.32h4.2c1.93-.06,4.09,0,5.33,1.7,1.25,1.64,1.48,4.71,1.76,6.69.34,2.27.85,3.8,1.25,4.71.28.57.57,1.08.91,1.65h9.53c-1.19-1.65-2.21-3.57-2.84-7.66-.4-2.5-.74-6.13-1.99-8.4-1.31-2.38-3.23-2.95-4.26-3.23.57-.06.96-.17,1.19-.23,2.44-.79,5.96-3.4,5.96-9.53,0-3.4-1.14-5.45-1.99-6.58-3.06-4.2-8.34-4.31-9.76-4.37-1.02-.06-1.99-.06-2.95-.06h-6.35Z" fill="#1a171b" isolation="isolate"/></svg>